HIERARCHY
ROOT Hips
{
	OFFSET 0.00000 0.00000 0.00000
	CHANNELS 6 Xposition Yposition Zposition Zrotation Yrotation Xrotation 
	JOINT LHipJoint
	{
		OFFSET 0 0 0
		CHANNELS 3 Zrotation Yrotation Xrotation
		JOINT LeftUpLeg
		{
			OFFSET 1.37324 -1.83837 0.85674
			CHANNELS 3 Zrotation Yrotation Xrotation
			JOINT LeftLeg
			{
				OFFSET 2.53826 -6.97383 0.00000
				CHANNELS 3 Zrotation Yrotation Xrotation
				JOINT LeftFoot
				{
					OFFSET 2.65296 -7.28895 0.00000
					CHANNELS 3 Zrotation Yrotation Xrotation
					JOINT LeftToeBase
					{
						OFFSET 0.22100 -0.60718 2.29776
						CHANNELS 3 Zrotation Yrotation Xrotation
						End Site
						{
							OFFSET 0.00000 -0.00000 1.19228
						}
					}
				}
			}
		}
	}
	JOINT RHipJoint
	{
		OFFSET 0 0 0
		CHANNELS 3 Zrotation Yrotation Xrotation
		JOINT RightUpLeg
		{
			OFFSET -1.30156 -1.83836 0.85673
			CHANNELS 3 Zrotation Yrotation Xrotation
			JOINT RightLeg
			{
				OFFSET -2.63627 -7.24310 0.00000
				CHANNELS 3 Zrotation Yrotation Xrotation
				JOINT RightFoot
				{
					OFFSET -2.62024 -7.19904 0.00000
					CHANNELS 3 Zrotation Yrotation Xrotation
					JOINT RightToeBase
					{
						OFFSET -0.20765 -0.57052 2.42402
						CHANNELS 3 Zrotation Yrotation Xrotation
						End Site
						{
							OFFSET -0.00000 -0.00000 1.24980
						}
					}
				}
			}
		}
	}
	JOINT LowerBack
	{
		OFFSET 0 0 0
		CHANNELS 3 Zrotation Yrotation Xrotation
		JOINT Spine
		{
			OFFSET 0.05739 2.14162 -0.22815
			CHANNELS 3 Zrotation Yrotation Xrotation
			JOINT Spine1
			{
				OFFSET 0.02798 2.14167 0.08145
				CHANNELS 3 Zrotation Yrotation Xrotation
				JOINT Neck
				{
					OFFSET 0 0 0
					CHANNELS 3 Zrotation Yrotation Xrotation
					JOINT Neck1
					{
						OFFSET -0.07019 1.58903 0.32980
						CHANNELS 3 Zrotation Yrotation Xrotation
						JOINT Head
						{
							OFFSET -0.03205 1.65283 -0.21190
							CHANNELS 3 Zrotation Yrotation Xrotation
							End Site
							{
								OFFSET -0.00726 1.66788 -0.10849
							}
						}
					}
				}
				JOINT LeftShoulder
				{
					OFFSET 0 0 0
					CHANNELS 3 Zrotation Yrotation Xrotation
					JOINT LeftArm
					{
						OFFSET 3.92858 0.97533 -0.07938
						CHANNELS 3 Zrotation Yrotation Xrotation
						JOINT LeftForeArm
						{
							OFFSET 5.58345 -0.00000 -0.00000
							CHANNELS 3 Zrotation Yrotation Xrotation
							JOINT LeftHand
							{
								OFFSET 3.71087 -0.00000 0.00000
								CHANNELS 3 Zrotation Yrotation Xrotation
								JOINT LeftFingerBase
								{
									OFFSET 0 0 0
									CHANNELS 3 Zrotation Yrotation Xrotation
									JOINT LeftHandIndex1
									{
										OFFSET 0.56232 -0.00000 -0.00000
										CHANNELS 3 Zrotation Yrotation Xrotation
										End Site
										{
											OFFSET 0.45336 -0.00000 -0.00000
										}
									}
								}
								JOINT LThumb
								{
									OFFSET 0 0 0
									CHANNELS 3 Zrotation Yrotation Xrotation
									End Site
									{
										OFFSET 0.46028 -0.00000 0.46028
									}
								}
							}
						}
					}
				}
				JOINT RightShoulder
				{
					OFFSET 0 0 0
					CHANNELS 3 Zrotation Yrotation Xrotation
					JOINT RightArm
					{
						OFFSET -3.89897 1.08887 -0.22589
						CHANNELS 3 Zrotation Yrotation Xrotation
						JOINT RightForeArm
						{
							OFFSET -5.20357 -0.00000 -0.00000
							CHANNELS 3 Zrotation Yrotation Xrotation
							JOINT RightHand
							{
								OFFSET -3.64937 -0.00000 0.00000
								CHANNELS 3 Zrotation Yrotation Xrotation
								JOINT RightFingerBase
								{
									OFFSET 0 0 0
									CHANNELS 3 Zrotation Yrotation Xrotation
									JOINT RightHandIndex1
									{
										OFFSET -0.61800 -0.00000 -0.00000
										CHANNELS 3 Zrotation Yrotation Xrotation
										End Site
										{
											OFFSET -0.49824 -0.00000 -0.00000
										}
									}
								}
								JOINT RThumb
								{
									OFFSET 0 0 0
									CHANNELS 3 Zrotation Yrotation Xrotation
									End Site
									{
										OFFSET -0.50585 -0.00000 0.50585
									}
								}
							}
						}
					}
				}
			}
		}
	}
}
MOTION
Frames: 13
Frame Time: .0083333
3.3646 16.1516 1.6829 -3.7127 -2.1350 -9.0168 0.0000 0.0000 0.0000 -5.3749 3.6704 -14.2250 9.7386 17.2602 58.6110 2.6232 -14.7609 -29.4679 0.4100 -4.1106 -11.3881 0.0000 0.0000 0.0000 14.2247 -6.4999 -15.3161 -10.1815 -17.5106 60.0931 -3.0407 7.4023 -31.6276 -0.3918 4.0193 -11.1309 2.3812 0.1622 8.2179 3.0734 0.5637 0.6021 1.7845 0.2629 -3.9957 -1.2934 -0.7060 -27.8889 -3.0849 0.5250 24.6024 -0.8893 -0.3507 12.8601 -0.0000 -0.0000 0.0000 -48.0462 -51.2445 4.1391 55.6708 -55.0414 -30.7650 -0.0000 -0.0000 19.6287 -18.3196 13.4676 -4.4094 -7.1250 0.0000 -0.0000 -38.6443 40.1222 5.6621 -0.0000 -0.0000 0.0000 27.5680 53.7808 -3.5334 -36.2246 45.6670 -15.6829 0.0000 0.0000 20.2149 11.4919 -18.2650 -3.6458 7.1250 -0.0000 -0.0000 35.9456 -44.9461 0.0553
3.3642 16.1515 1.6826 -3.7439 -2.1388 -9.0235 0.0000 0.0000 0.0000 -5.3337 3.6729 -14.2209 9.7393 17.2606 58.6136 2.6201 -14.7874 -29.4542 0.4081 -4.1010 -11.3610 0.0000 0.0000 0.0000 14.2621 -6.5016 -15.3069 -10.1805 -17.5101 60.0900 -3.0389 7.3982 -31.6179 -0.3908 4.0140 -11.1160 2.4114 0.1665 8.2327 3.0759 0.5728 0.6046 1.7692 0.2669 -4.0013 -1.2775 -0.7078 -27.8695 -3.0925 0.5164 24.5761 -0.8960 -0.3535 12.8456 0.0000 0.0000 0.0000 -48.0564 -51.2621 4.1566 55.6648 -55.0395 -30.7601 -0.0000 -0.0000 19.6622 -18.4058 13.4074 -4.4122 -7.1250 0.0000 -0.0000 -38.6757 40.0619 5.7407 0.0000 0.0000 0.0000 27.5578 53.7683 -3.5570 -36.2185 45.6629 -15.6786 0.0000 0.0000 20.2030 11.4964 -18.2883 -3.6518 7.1250 -0.0000 -0.0000 35.9621 -44.9650 0.0360
3.3643 16.1513 1.6818 -3.7612 -2.1345 -9.0133 0.0000 0.0000 0.0000 -5.3156 3.6640 -14.2356 9.7398 17.2609 58.6151 2.6204 -14.7725 -29.4538 0.4119 -4.1198 -11.4139 0.0000 0.0000 0.0000 14.2816 -6.5048 -15.3241 -10.1801 -17.5099 60.0885 -3.0380 7.3921 -31.6136 -0.3916 4.0184 -11.1285 2.4321 0.1653 8.2349 3.0780 0.5733 0.6049 1.7597 0.2667 -4.0021 -1.2880 -0.7072 -27.8698 -3.0782 0.5172 24.5681 -0.8884 -0.3520 12.8423 0.0000 0.0000 0.0000 -48.0540 -51.2810 4.1616 55.6574 -55.0371 -30.7540 -0.0000 -0.0000 19.6280 -18.4792 13.3897 -4.4253 -7.1250 0.0000 -0.0000 -38.7191 40.0384 5.7782 0.0000 0.0000 0.0000 27.5539 53.7822 -3.5886 -36.2122 45.6586 -15.6741 0.0000 0.0000 20.2074 11.4947 -18.2695 -3.6476 7.1250 -0.0000 -0.0000 35.9504 -44.9495 0.0518
3.3646 16.1524 1.6819 -3.7181 -2.1182 -9.0002 0.0000 0.0000 0.0000 -5.3743 3.6456 -14.2485 9.7383 17.2601 58.6102 2.6195 -14.7700 -29.4487 0.4097 -4.1092 -11.3840 0.0000 0.0000 0.0000 14.2289 -6.5163 -15.3413 -10.1796 -17.5096 60.0870 -3.0362 7.4036 -31.6026 -0.3929 4.0246 -11.1459 2.3859 0.1641 8.2236 3.0674 0.5670 0.5927 1.7754 0.2643 -4.0087 -1.2923 -0.7026 -27.8003 -3.0692 0.5194 24.5230 -0.8827 -0.3490 12.8107 -0.0000 0.0000 0.0000 -48.0922 -51.2727 4.1872 55.6521 -55.0354 -30.7497 -0.0000 -0.0000 19.6562 -18.4432 13.3854 -4.4147 -7.1250 0.0000 -0.0000 -38.6914 40.0391 5.7713 -0.0000 0.0000 0.0000 27.5668 53.7752 -3.5684 -36.2164 45.6615 -15.6771 0.0000 0.0000 20.1936 11.5278 -18.2668 -3.6579 7.1250 -0.0000 -0.0000 35.9755 -44.9430 0.0585
3.3647 16.1534 1.6822 -3.7278 -2.1234 -9.0047 0.0000 0.0000 0.0000 -5.3627 3.6513 -14.2351 9.7360 17.2587 58.6025 2.6188 -14.7889 -29.4471 0.4087 -4.1042 -11.3699 0.0000 0.0000 0.0000 14.2375 -6.5167 -15.3338 -10.1778 -17.5086 60.0809 -3.0351 7.4104 -31.5961 -0.3907 4.0134 -11.1144 2.3993 0.1663 8.2420 3.0677 0.5723 0.5875 1.7675 0.2666 -4.0244 -1.2920 -0.7035 -27.7978 -3.0692 0.5183 24.5334 -0.8831 -0.3496 12.8144 -0.0000 -0.0000 0.0000 -48.1124 -51.2686 4.2162 55.6623 -55.0387 -30.7580 -0.0000 -0.0000 19.6224 -18.5502 13.3448 -4.4289 -7.1250 0.0000 -0.0000 -38.7471 39.9926 5.8392 -0.0000 -0.0000 0.0000 27.5815 53.7755 -3.5543 -36.2054 45.6539 -15.6692 0.0000 0.0000 20.1744 11.4746 -18.3080 -3.6485 7.1250 -0.0000 -0.0000 35.9553 -44.9842 0.0162
3.3642 16.1535 1.6821 -3.7192 -2.1151 -9.0009 0.0000 0.0000 0.0000 -5.3723 3.6426 -14.2350 9.7337 17.2573 58.5944 2.6174 -14.7865 -29.4392 0.4074 -4.0977 -11.3517 0.0000 0.0000 0.0000 14.2275 -6.5247 -15.3393 -10.1773 -17.5083 60.0792 -3.0343 7.4208 -31.5909 -0.3897 4.0084 -11.1004 2.3712 0.1690 8.2357 3.0771 0.5734 0.5892 1.7930 0.2678 -4.0195 -1.3049 -0.7028 -27.7641 -3.0705 0.5229 24.4922 -0.8798 -0.3482 12.7915 -0.0000 -0.0000 0.0000 -48.1434 -51.2874 4.2313 55.6461 -55.0335 -30.7448 -0.0000 -0.0000 19.6000 -18.5566 13.3357 -4.4275 -7.1250 0.0000 -0.0000 -38.7471 39.9842 5.8492 -0.0000 -0.0000 0.0000 27.5646 53.7733 -3.5625 -36.2019 45.6515 -15.6667 0.0000 0.0000 20.1583 11.4911 -18.3219 -3.6565 7.1250 -0.0000 -0.0000 35.9760 -44.9936 0.0066
3.3641 16.1541 1.6822 -3.7251 -2.1165 -9.0047 0.0000 0.0000 0.0000 -5.3653 3.6458 -14.2303 9.7316 17.2561 58.5875 2.6191 -14.7798 -29.4478 0.4110 -4.1154 -11.4016 0.0000 0.0000 0.0000 14.2368 -6.5246 -15.3327 -10.1753 -17.5073 60.0728 -3.0342 7.4001 -31.5925 -0.3928 4.0241 -11.1445 2.3821 0.1659 8.2493 3.0736 0.5705 0.5925 1.7836 0.2661 -4.0235 -1.2840 -0.6966 -27.7623 -3.0845 0.5265 24.4775 -0.8878 -0.3464 12.7853 -0.0000 -0.0000 0.0000 -48.1425 -51.2842 4.2324 55.6486 -55.0343 -30.7468 -0.0000 -0.0000 19.6032 -18.5255 13.3376 -4.4203 -7.1250 0.0000 -0.0000 -38.7260 39.9895 5.8381 -0.0000 -0.0000 0.0000 27.5784 53.7889 -3.5637 -36.1907 45.6439 -15.6587 0.0000 0.0000 20.1608 11.4976 -18.2994 -3.6543 7.1250 -0.0000 -0.0000 35.9690 -44.9741 0.0266
3.3645 16.1542 1.6825 -3.7185 -2.1128 -8.9922 0.0000 0.0000 0.0000 -5.3773 3.6472 -14.2453 9.7301 17.2553 58.5826 2.6184 -14.7572 -29.4410 0.4148 -4.1339 -11.4538 0.0000 0.0000 0.0000 14.2270 -6.5279 -15.3413 -10.1742 -17.5066 60.0689 -3.0346 7.4087 -31.5935 -0.3923 4.0218 -11.1380 2.3756 0.1700 8.2434 3.0746 0.5758 0.5786 1.7877 0.2688 -4.0348 -1.2872 -0.7038 -27.7151 -3.0877 0.5169 24.4630 -0.8898 -0.3509 12.7703 -0.0000 -0.0000 0.0000 -48.1962 -51.2731 4.2951 55.6479 -55.0341 -30.7463 -0.0000 -0.0000 19.5968 -18.5001 13.3292 -4.4111 -7.1250 0.0000 -0.0000 -38.7038 39.9856 5.8380 -0.0000 -0.0000 0.0000 27.5871 53.7702 -3.5390 -36.1859 45.6406 -15.6553 0.0000 0.0000 20.1551 11.4962 -18.3029 -3.6546 7.1250 -0.0000 -0.0000 35.9697 -44.9772 0.0234
3.3646 16.1546 1.6827 -3.6879 -2.1203 -8.9920 0.0000 0.0000 0.0000 -5.4124 3.6509 -14.2387 9.7276 17.2538 58.5739 2.6168 -14.7659 -29.4334 0.4121 -4.1211 -11.4175 0.0000 0.0000 0.0000 14.1936 -6.5150 -15.3386 -10.1722 -17.5056 60.0624 -3.0347 7.4133 -31.5940 -0.3933 4.0267 -11.1517 2.3469 0.1787 8.2432 3.0666 0.5843 0.5796 1.7945 0.2734 -4.0338 -1.3054 -0.7035 -27.7036 -3.0644 0.5173 24.4508 -0.8774 -0.3488 12.7630 0.0000 0.0000 0.0000 -48.2236 -51.2891 4.3223 55.6438 -55.0327 -30.7429 -0.0000 -0.0000 19.6027 -18.5557 13.3151 -4.4207 -7.1250 0.0000 -0.0000 -38.7364 39.9672 5.8671 0.0000 0.0000 0.0000 27.5877 53.7693 -3.5419 -36.1755 45.6335 -15.6478 0.0000 0.0000 20.1747 11.4706 -18.2995 -3.6455 7.1250 -0.0000 -0.0000 35.9473 -44.9777 0.0229
3.3641 16.1547 1.6825 -3.7227 -2.1167 -8.9870 0.0000 0.0000 0.0000 -5.3683 3.6550 -14.2415 9.7254 17.2525 58.5665 2.6164 -14.7699 -29.4316 0.4109 -4.1149 -11.4000 0.0000 0.0000 0.0000 14.2431 -6.5047 -15.3358 -10.1690 -17.5038 60.0518 -3.0341 7.3791 -31.5936 -0.3926 4.0232 -11.1419 2.3755 0.1734 8.2506 3.0798 0.5809 0.5754 1.7927 0.2713 -4.0423 -1.2956 -0.7007 -27.6930 -3.0899 0.5243 24.4423 -0.8874 -0.3483 12.7579 0.0000 0.0000 0.0000 -48.2489 -51.2778 4.3334 55.6492 -55.0345 -30.7473 -0.0000 -0.0000 19.6225 -18.5870 13.2550 -4.4091 -7.1250 0.0000 -0.0000 -38.7286 39.9134 5.9298 0.0000 0.0000 0.0000 27.5913 53.7785 -3.5209 -36.1557 45.6199 -15.6336 0.0000 0.0000 20.1901 11.4704 -18.2848 -3.6427 7.1250 -0.0000 -0.0000 35.9392 -44.9654 0.0355
3.3644 16.1555 1.6836 -3.7215 -2.1085 -8.9928 0.0000 0.0000 0.0000 -5.3740 3.6532 -14.2270 9.7224 17.2507 58.5563 2.6165 -14.7681 -29.4323 0.4127 -4.1239 -11.4255 0.0000 0.0000 0.0000 14.2364 -6.5204 -15.3193 -10.1657 -17.5020 60.0407 -3.0347 7.3847 -31.5962 -0.3948 4.0345 -11.1737 2.3786 0.1675 8.2519 3.0787 0.5735 0.5708 1.7906 0.2676 -4.0476 -1.2842 -0.6929 -27.6465 -3.1001 0.5313 24.4128 -0.8912 -0.3448 12.7372 -0.0000 0.0000 0.0000 -48.2789 -51.2573 4.3632 55.6594 -55.0377 -30.7557 -0.0000 -0.0000 19.6472 -18.5723 13.3102 -4.4233 -7.1250 0.0000 -0.0000 -38.7456 39.9611 5.8764 -0.0000 0.0000 0.0000 27.6171 53.7804 -3.4740 -36.1446 45.6124 -15.6258 0.0000 0.0000 20.2088 11.4508 -18.2491 -3.6295 7.1250 -0.0000 -0.0000 35.9041 -44.9381 0.0634
3.3642 16.1566 1.6844 -3.6877 -2.1077 -8.9933 0.0000 0.0000 0.0000 -5.4140 3.6579 -14.2161 9.7189 17.2487 58.5448 2.6155 -14.7676 -29.4267 0.4109 -4.1149 -11.4002 0.0000 0.0000 0.0000 14.2024 -6.5089 -15.3093 -10.1628 -17.5004 60.0310 -3.0346 7.3752 -31.5966 -0.3980 4.0504 -11.2185 2.3380 0.1735 8.2423 3.0772 0.5771 0.5757 1.8114 0.2701 -4.0375 -1.4044 -0.7222 -27.6496 -3.0252 0.5186 24.4110 -0.8447 -0.3513 12.7366 -0.0000 -0.0000 0.0000 -48.3227 -51.2614 4.3896 55.6563 -55.0368 -30.7532 -0.0000 -0.0000 19.6690 -18.5764 13.2991 -4.4207 -7.1250 0.0000 -0.0000 -38.7430 39.9514 5.8875 -0.0000 -0.0000 0.0000 27.6021 53.7738 -3.4496 -36.1450 45.6127 -15.6261 0.0000 0.0000 20.1782 11.4058 -18.2793 -3.6206 7.1250 -0.0000 -0.0000 35.8842 -44.9691 0.0317
3.3641 16.1564 1.6844 -3.7063 -2.1010 -8.9883 0.0000 0.0000 0.0000 -5.3930 3.6440 -14.2238 9.7181 17.2483 58.5420 2.6136 -14.7727 -29.4169 0.4114 -4.1175 -11.4075 0.0000 0.0000 0.0000 14.2267 -6.5077 -15.3092 -10.1608 -17.4993 60.0243 -3.0339 7.3755 -31.5925 -0.3932 4.0264 -11.1509 2.3606 0.1701 8.2626 3.0775 0.5763 0.5585 1.7992 0.2691 -4.0666 -1.3936 -0.7165 -27.6188 -3.0296 0.5221 24.3985 -0.8471 -0.3489 12.7257 0.0000 -0.0000 0.0000 -48.3554 -51.2302 4.4435 55.6563 -55.0368 -30.7532 -0.0000 -0.0000 19.6827 -18.5281 13.3048 -4.4103 -7.1250 0.0000 -0.0000 -38.7116 39.9619 5.8679 0.0000 -0.0000 0.0000 27.6424 53.7600 -3.3920 -36.1354 45.6061 -15.6192 0.0000 0.0000 20.1825 11.4359 -18.2210 -3.6192 7.1250 -0.0000 -0.0000 35.8768 -44.9166 0.0854
